<svg width="170" height="57" viewBox="0 0 170 57" fill="none" xmlns="http://www.w3.org/2000/svg">
<path d="M0.130682 7.97017V0.363635H35.9688V7.97017H22.6094V44H13.4901V7.97017H0.130682ZM46.5795 44.6179C44.4915 44.6179 42.6307 44.2557 40.9972 43.5312C39.3636 42.7926 38.071 41.706 37.1193 40.2713C36.1818 38.8224 35.7131 37.0185 35.7131 34.8594C35.7131 33.0412 36.0469 31.5142 36.7145 30.2784C37.3821 29.0426 38.2912 28.0483 39.4418 27.2955C40.5923 26.5426 41.8991 25.9744 43.3622 25.5909C44.8395 25.2074 46.3878 24.9375 48.0071 24.7812C49.9105 24.5824 51.4446 24.3977 52.6094 24.2273C53.7741 24.0426 54.6193 23.7727 55.1449 23.4176C55.6705 23.0625 55.9332 22.5369 55.9332 21.8409V21.7131C55.9332 20.3636 55.5071 19.3196 54.6548 18.581C53.8168 17.8423 52.6236 17.473 51.0753 17.473C49.4418 17.473 48.142 17.8352 47.1761 18.5597C46.2102 19.2699 45.571 20.1648 45.2585 21.2443L36.8636 20.5625C37.2898 18.5739 38.1278 16.8551 39.3778 15.4062C40.6278 13.9432 42.2401 12.821 44.2145 12.0398C46.2031 11.2443 48.5043 10.8466 51.1179 10.8466C52.9361 10.8466 54.6761 11.0597 56.3381 11.4858C58.0142 11.9119 59.4986 12.5724 60.7912 13.4673C62.098 14.3622 63.1278 15.5128 63.8807 16.919C64.6335 18.3111 65.0099 19.9801 65.0099 21.9261V44H56.402V39.4616H56.1463C55.6207 40.4844 54.9176 41.3864 54.0369 42.1676C53.1562 42.9347 52.098 43.5384 50.8622 43.9787C49.6264 44.4048 48.1989 44.6179 46.5795 44.6179ZM49.179 38.3537C50.5142 38.3537 51.6932 38.0909 52.7159 37.5653C53.7386 37.0256 54.5412 36.3011 55.1236 35.392C55.706 34.483 55.9972 33.4531 55.9972 32.3026V28.8295C55.7131 29.0142 55.3224 29.1847 54.8253 29.3409C54.3423 29.483 53.7955 29.6179 53.1847 29.7457C52.5739 29.8594 51.9631 29.9659 51.3523 30.0653C50.7415 30.1506 50.1875 30.2287 49.6903 30.2997C48.625 30.456 47.6946 30.7045 46.8991 31.0455C46.1037 31.3864 45.4858 31.848 45.0455 32.4304C44.6051 32.9986 44.3849 33.7088 44.3849 34.5611C44.3849 35.7969 44.8324 36.7415 45.7273 37.3949C46.6364 38.0341 47.7869 38.3537 49.179 38.3537ZM81.1286 0.363635V44H72.0518V0.363635H81.1286ZM96.6239 34.5824L96.6452 23.6946H97.9663L108.449 11.2727H118.868L104.784 27.7216H102.632L96.6239 34.5824ZM88.3995 44V0.363635H97.4762V44H88.3995ZM108.854 44L99.2234 29.7457L105.275 23.3324L119.486 44H108.854ZM129.452 56.2727C128.302 56.2727 127.222 56.1804 126.214 55.9957C125.219 55.8253 124.396 55.6051 123.742 55.3352L125.788 48.5597C126.853 48.8864 127.812 49.0639 128.664 49.0923C129.531 49.1207 130.276 48.9219 130.901 48.4957C131.54 48.0696 132.059 47.3452 132.457 46.3224L132.989 44.9375L121.249 11.2727H130.795L137.57 35.3068H137.911L144.751 11.2727H154.36L141.64 47.5369C141.029 49.2983 140.198 50.8324 139.147 52.1392C138.11 53.4602 136.796 54.4759 135.205 55.1861C133.614 55.9105 131.697 56.2727 129.452 56.2727Z" fill="#243443"/>
<path d="M164.31 44.554C162.904 44.554 161.697 44.0568 160.688 43.0625C159.694 42.054 159.197 40.8466 159.197 39.4403C159.197 38.0483 159.694 36.8551 160.688 35.8608C161.697 34.8665 162.904 34.3693 164.31 34.3693C165.674 34.3693 166.867 34.8665 167.89 35.8608C168.913 36.8551 169.424 38.0483 169.424 39.4403C169.424 40.3778 169.183 41.2372 168.7 42.0185C168.231 42.7855 167.613 43.4034 166.846 43.8722C166.079 44.3267 165.234 44.554 164.31 44.554Z" fill="#377DFF"/>
</svg>
